<!-- Generated by Copilot SVG Dashboard Generator -->
<svg xmlns="http://www.w3.org/2000/svg" width="1400" height="1050" fill="#e6edf3" font-family="Segoe UI, Roboto, sans-serif">
  <rect width="1400" height="1050" fill="#0d1117"/>

  <!-- ═══ ROW 1: Title Banner (y=30, h=72) ═══ -->
  <g transform="translate(30,30)">
    <rect width="1340" height="72" rx="12" fill="#161b22"/>
    <text x="670" y="34" text-anchor="middle" font-size="22" font-weight="bold">MITRE ATT&amp;CK Coverage Dashboard</text>
    <text x="670" y="54" text-anchor="middle" font-size="12" fill="#b2b2b2">Contoso SOC · Enterprise v16.1 · 2026-04-05 · 30-day lookback</text>
    <line x1="590" y1="64" x2="750" y2="64" stroke="#409AE1" stroke-width="2"/>
  </g>

  <!-- ═══ ROW 2: Score Card + 4 KPI Cards (y=122, h=130) ═══ -->
  <!-- Score Card (20% = 268px) -->
  <g transform="translate(30,122)">
    <rect width="268" height="130" rx="12" fill="#161b22"/>
    <text x="134" y="28" text-anchor="middle" font-size="13" font-weight="bold">MITRE Coverage Score</text>
    <text x="134" y="76" text-anchor="middle" font-size="44" font-weight="bold" fill="#FFC83D">45.1</text>
    <text x="134" y="96" text-anchor="middle" font-size="15" fill="#b2b2b2">/100</text>
    <text x="134" y="118" text-anchor="middle" font-size="14" font-weight="bold" fill="#FFC83D">MODERATE</text>
  </g>
  <!-- KPI 1: Rule-Based Techniques -->
  <g transform="translate(318,122)">
    <rect width="248" height="130" rx="12" fill="#161b22"/>
    <text x="124" y="30" text-anchor="middle" font-size="11" fill="#b2b2b2">Rule-Based Techniques</text>
    <text x="124" y="74" text-anchor="middle" font-size="34" font-weight="bold" fill="#409AE1">40/250</text>
    <text x="124" y="100" text-anchor="middle" font-size="13" fill="#b2b2b2">16%</text>
  </g>
  <!-- KPI 2: Enabled Rules -->
  <g transform="translate(586,122)">
    <rect width="248" height="130" rx="12" fill="#161b22"/>
    <text x="124" y="30" text-anchor="middle" font-size="11" fill="#b2b2b2">Enabled Rules</text>
    <text x="124" y="74" text-anchor="middle" font-size="34" font-weight="bold" fill="#409AE1">107</text>
    <text x="124" y="100" text-anchor="middle" font-size="13" fill="#b2b2b2">98 AR + 9 CD</text>
  </g>
  <!-- KPI 3: Combined Coverage -->
  <g transform="translate(854,122)">
    <rect width="248" height="130" rx="12" fill="#161b22"/>
    <text x="124" y="30" text-anchor="middle" font-size="11" fill="#b2b2b2">Combined Coverage</text>
    <text x="124" y="74" text-anchor="middle" font-size="34" font-weight="bold" fill="#40C5AF">128/250</text>
    <text x="124" y="100" text-anchor="middle" font-size="13" fill="#b2b2b2">51.2%</text>
  </g>
  <!-- KPI 4: Data Readiness -->
  <g transform="translate(1122,122)">
    <rect width="248" height="130" rx="12" fill="#161b22"/>
    <text x="124" y="30" text-anchor="middle" font-size="11" fill="#b2b2b2">Data Readiness</text>
    <text x="124" y="74" text-anchor="middle" font-size="34" font-weight="bold" fill="#40C5AF">89.3%</text>
    <text x="124" y="100" text-anchor="middle" font-size="13" fill="#b2b2b2">75 ready · 4 partial · 3 no data</text>
  </g>

  <!-- ═══ ROW 3: Stacked Bar Chart (65%) + Score Dimensions (35%) (y=272, h=300) ═══ -->
  <!-- Stacked Bar Chart (w=871) -->
  <!-- Chart area: chart_x=40, chart_y=35, chart_h=225, base_y=260 -->
  <!-- 14 bars: bar_w=51, bar_gap=8, step=59  |  max_val=47 (DefEvas), scale=4.787 -->
  <g transform="translate(30,272)">
    <rect width="871" height="300" rx="12" fill="#161b22"/>
    <text x="40" y="20" font-size="14" font-weight="bold">Combined Tactic Coverage (Rule-Based + Platform)</text>
    <!-- Legend -->
    <rect x="560" y="10" width="10" height="10" rx="2" fill="#409AE1"/><text x="575" y="19" font-size="10" fill="#b2b2b2">Rule-Based</text>
    <rect x="660" y="10" width="10" height="10" rx="2" fill="#40C5AF"/><text x="675" y="19" font-size="10" fill="#b2b2b2">Platform Uplift</text>
    <rect x="785" y="10" width="10" height="10" rx="2" fill="#21262d"/><text x="800" y="19" font-size="10" fill="#b2b2b2">Uncovered</text>
    <!-- Baseline -->
    <line x1="40" y1="260" x2="858" y2="260" stroke="#30363d" stroke-width="1"/>

    <!-- Bar 0: Recon  rule=0 uplift=1 fw=11 -->
    <rect x="40" y="207" width="51" height="53" rx="2" fill="#21262d" opacity="0.5"><title>Reconnaissance: 11 techniques</title></rect>
    <rect x="40" y="255" width="51" height="5" rx="2" fill="#40C5AF"><title>Platform: +1</title></rect>
    <text x="65" y="202" text-anchor="middle" font-size="9" fill="#b2b2b2">1/11</text>

    <!-- Bar 1: ResDev  rule=1 uplift=1 fw=8 -->
    <rect x="99" y="222" width="51" height="38" rx="2" fill="#21262d" opacity="0.5"><title>Resource Dev: 8 techniques</title></rect>
    <rect x="99" y="255" width="51" height="5" rx="2" fill="#409AE1"><title>Rules: 1</title></rect>
    <rect x="99" y="250" width="51" height="5" rx="2" fill="#40C5AF"><title>Platform: +1</title></rect>
    <text x="124" y="217" text-anchor="middle" font-size="9" fill="#b2b2b2">2/8</text>

    <!-- Bar 2: InitAcc  rule=5 uplift=1 fw=11 -->
    <rect x="158" y="207" width="51" height="53" rx="2" fill="#21262d" opacity="0.5"><title>Initial Access: 11 techniques</title></rect>
    <rect x="158" y="236" width="51" height="24" rx="2" fill="#409AE1"><title>Rules: 5</title></rect>
    <rect x="158" y="231" width="51" height="5" rx="2" fill="#40C5AF"><title>Platform: +1</title></rect>
    <text x="183" y="202" text-anchor="middle" font-size="9" fill="#b2b2b2">6/11</text>

    <!-- Bar 3: Exec  rule=3 uplift=6 fw=17 -->
    <rect x="217" y="179" width="51" height="81" rx="2" fill="#21262d" opacity="0.5"><title>Execution: 17 techniques</title></rect>
    <rect x="217" y="246" width="51" height="14" rx="2" fill="#409AE1"><title>Rules: 3</title></rect>
    <rect x="217" y="217" width="51" height="29" rx="2" fill="#40C5AF"><title>Platform: +6</title></rect>
    <text x="242" y="174" text-anchor="middle" font-size="9" fill="#b2b2b2">9/17</text>

    <!-- Bar 4: Persist  rule=6 uplift=7 fw=23 -->
    <rect x="276" y="150" width="51" height="110" rx="2" fill="#21262d" opacity="0.5"><title>Persistence: 23 techniques</title></rect>
    <rect x="276" y="231" width="51" height="29" rx="2" fill="#409AE1"><title>Rules: 6</title></rect>
    <rect x="276" y="198" width="51" height="33" rx="2" fill="#40C5AF"><title>Platform: +7</title></rect>
    <text x="301" y="145" text-anchor="middle" font-size="9" fill="#b2b2b2">13/23</text>

    <!-- Bar 5: PrivEsc  rule=4 uplift=8 fw=14 -->
    <rect x="335" y="193" width="51" height="67" rx="2" fill="#21262d" opacity="0.5"><title>Privilege Escalation: 14 techniques</title></rect>
    <rect x="335" y="241" width="51" height="19" rx="2" fill="#409AE1"><title>Rules: 4</title></rect>
    <rect x="335" y="203" width="51" height="38" rx="2" fill="#40C5AF"><title>Platform: +8</title></rect>
    <text x="360" y="188" text-anchor="middle" font-size="9" fill="#b2b2b2">12/14</text>

    <!-- Bar 6: DefEvas  rule=7 uplift=17 fw=47 -->
    <rect x="394" y="35" width="51" height="225" rx="2" fill="#21262d" opacity="0.5"><title>Defense Evasion: 47 techniques</title></rect>
    <rect x="394" y="227" width="51" height="33" rx="2" fill="#409AE1"><title>Rules: 7</title></rect>
    <rect x="394" y="145" width="51" height="82" rx="2" fill="#40C5AF"><title>Platform: +17</title></rect>
    <text x="419" y="30" text-anchor="middle" font-size="9" fill="#b2b2b2">24/47</text>

    <!-- Bar 7: CredAcc  rule=3 uplift=10 fw=17 -->
    <rect x="453" y="179" width="51" height="81" rx="2" fill="#21262d" opacity="0.5"><title>Credential Access: 17 techniques</title></rect>
    <rect x="453" y="246" width="51" height="14" rx="2" fill="#409AE1"><title>Rules: 3</title></rect>
    <rect x="453" y="198" width="51" height="48" rx="2" fill="#40C5AF"><title>Platform: +10</title></rect>
    <text x="478" y="174" text-anchor="middle" font-size="9" fill="#b2b2b2">13/17</text>

    <!-- Bar 8: Disc  rule=3 uplift=12 fw=34 -->
    <rect x="512" y="97" width="51" height="163" rx="2" fill="#21262d" opacity="0.5"><title>Discovery: 34 techniques</title></rect>
    <rect x="512" y="246" width="51" height="14" rx="2" fill="#409AE1"><title>Rules: 3</title></rect>
    <rect x="512" y="188" width="51" height="58" rx="2" fill="#40C5AF"><title>Platform: +12</title></rect>
    <text x="537" y="92" text-anchor="middle" font-size="9" fill="#b2b2b2">15/34</text>

    <!-- Bar 9: LatMov  rule=3 uplift=4 fw=9 -->
    <rect x="571" y="217" width="51" height="43" rx="2" fill="#21262d" opacity="0.5"><title>Lateral Movement: 9 techniques</title></rect>
    <rect x="571" y="246" width="51" height="14" rx="2" fill="#409AE1"><title>Rules: 3</title></rect>
    <rect x="571" y="227" width="51" height="19" rx="2" fill="#40C5AF"><title>Platform: +4</title></rect>
    <text x="596" y="212" text-anchor="middle" font-size="9" fill="#b2b2b2">7/9</text>

    <!-- Bar 10: Collect  rule=0 uplift=8 fw=17 -->
    <rect x="630" y="179" width="51" height="81" rx="2" fill="#21262d" opacity="0.5"><title>Collection: 17 techniques</title></rect>
    <rect x="630" y="222" width="51" height="38" rx="2" fill="#40C5AF"><title>Platform: +8</title></rect>
    <text x="655" y="174" text-anchor="middle" font-size="9" fill="#b2b2b2">8/17</text>

    <!-- Bar 11: C2  rule=1 uplift=5 fw=18 -->
    <rect x="689" y="174" width="51" height="86" rx="2" fill="#21262d" opacity="0.5"><title>Command &amp; Control: 18 techniques</title></rect>
    <rect x="689" y="255" width="51" height="5" rx="2" fill="#409AE1"><title>Rules: 1</title></rect>
    <rect x="689" y="231" width="51" height="24" rx="2" fill="#40C5AF"><title>Platform: +5</title></rect>
    <text x="714" y="169" text-anchor="middle" font-size="9" fill="#b2b2b2">6/18</text>

    <!-- Bar 12: Exfil  rule=2 uplift=4 fw=9 -->
    <rect x="748" y="217" width="51" height="43" rx="2" fill="#21262d" opacity="0.5"><title>Exfiltration: 9 techniques</title></rect>
    <rect x="748" y="250" width="51" height="10" rx="2" fill="#409AE1"><title>Rules: 2</title></rect>
    <rect x="748" y="231" width="51" height="19" rx="2" fill="#40C5AF"><title>Platform: +4</title></rect>
    <text x="773" y="212" text-anchor="middle" font-size="9" fill="#b2b2b2">6/9</text>

    <!-- Bar 13: Impact  rule=2 uplift=4 fw=15 -->
    <rect x="807" y="188" width="51" height="72" rx="2" fill="#21262d" opacity="0.5"><title>Impact: 15 techniques</title></rect>
    <rect x="807" y="250" width="51" height="10" rx="2" fill="#409AE1"><title>Rules: 2</title></rect>
    <rect x="807" y="231" width="51" height="19" rx="2" fill="#40C5AF"><title>Platform: +4</title></rect>
    <text x="832" y="183" text-anchor="middle" font-size="9" fill="#b2b2b2">6/15</text>

    <!-- X-axis labels (rotated) -->
    <text x="65" y="275" text-anchor="end" font-size="9" fill="#b2b2b2" transform="rotate(-45,65,275)">Recon</text>
    <text x="124" y="275" text-anchor="end" font-size="9" fill="#b2b2b2" transform="rotate(-45,124,275)">ResDev</text>
    <text x="183" y="275" text-anchor="end" font-size="9" fill="#b2b2b2" transform="rotate(-45,183,275)">InitAcc</text>
    <text x="242" y="275" text-anchor="end" font-size="9" fill="#b2b2b2" transform="rotate(-45,242,275)">Exec</text>
    <text x="301" y="275" text-anchor="end" font-size="9" fill="#b2b2b2" transform="rotate(-45,301,275)">Persist</text>
    <text x="360" y="275" text-anchor="end" font-size="9" fill="#b2b2b2" transform="rotate(-45,360,275)">PrivEsc</text>
    <text x="419" y="275" text-anchor="end" font-size="9" fill="#b2b2b2" transform="rotate(-45,419,275)">DefEvas</text>
    <text x="478" y="275" text-anchor="end" font-size="9" fill="#b2b2b2" transform="rotate(-45,478,275)">CredAcc</text>
    <text x="537" y="275" text-anchor="end" font-size="9" fill="#b2b2b2" transform="rotate(-45,537,275)">Disc</text>
    <text x="596" y="275" text-anchor="end" font-size="9" fill="#b2b2b2" transform="rotate(-45,596,275)">LatMov</text>
    <text x="655" y="275" text-anchor="end" font-size="9" fill="#b2b2b2" transform="rotate(-45,655,275)">Collect</text>
    <text x="714" y="275" text-anchor="end" font-size="9" fill="#b2b2b2" transform="rotate(-45,714,275)">C2</text>
    <text x="773" y="275" text-anchor="end" font-size="9" fill="#b2b2b2" transform="rotate(-45,773,275)">Exfil</text>
    <text x="832" y="275" text-anchor="end" font-size="9" fill="#b2b2b2" transform="rotate(-45,832,275)">Impact</text>
  </g>

  <!-- Score Dimensions (w=449) at x=921 -->
  <g transform="translate(921,272)">
    <rect width="449" height="300" rx="12" fill="#161b22"/>
    <text x="20" y="24" font-size="14" font-weight="bold">Score Dimensions</text>
    <!-- Reference line at score=50 → x=150+50*2.69=284 -->
    <line x1="284" y1="42" x2="284" y2="250" stroke="#30363d" stroke-width="1" stroke-dasharray="4,4"/>
    <text x="284" y="262" text-anchor="middle" font-size="9" fill="#30363d">50</text>
    <!-- Bars: label_end=145, bar_start=150, scale=2.69/100 -->
    <!-- Breadth 31 → w=83 -->
    <text x="145" y="72" text-anchor="end" font-size="11" fill="#b2b2b2">Breadth (25%)</text>
    <rect x="150" y="58" width="83" height="22" rx="4" fill="#409AE1"><title>31/100</title></rect>
    <text x="240" y="73" font-size="11" font-weight="bold">31</text>
    <!-- Balance 85.7 → w=230 -->
    <text x="145" y="112" text-anchor="end" font-size="11" fill="#b2b2b2">Balance (10%)</text>
    <rect x="150" y="98" width="230" height="22" rx="4" fill="#40C5AF"><title>85.7/100</title></rect>
    <text x="386" y="113" font-size="11" font-weight="bold">85.7</text>
    <!-- Operational 20 → w=54 -->
    <text x="145" y="152" text-anchor="end" font-size="11" fill="#b2b2b2">Operational (30%)</text>
    <rect x="150" y="138" width="54" height="22" rx="4" fill="#FFC83D"><title>20/100</title></rect>
    <text x="210" y="153" font-size="11" font-weight="bold">20</text>
    <!-- Tagging 95.4 → w=257 -->
    <text x="145" y="192" text-anchor="end" font-size="11" fill="#b2b2b2">Tagging (15%)</text>
    <rect x="150" y="178" width="257" height="22" rx="4" fill="#b4a0ff"><title>95.4/100</title></rect>
    <text x="413" y="193" font-size="11" font-weight="bold">95.4</text>
    <!-- SOC Align 42.1 → w=113 -->
    <text x="145" y="232" text-anchor="end" font-size="11" fill="#b2b2b2">SOC Align (20%)</text>
    <rect x="150" y="218" width="113" height="22" rx="4" fill="#EF6950"><title>42.1/100</title></rect>
    <text x="269" y="233" font-size="11" font-weight="bold">42.1</text>
  </g>

  <!-- ═══ ROW 4: SOC Scenarios Table (60%) + Donut Chart (40%) (y=592, h=280) ═══ -->
  <!-- Table (w=804) -->
  <g transform="translate(30,592)">
    <rect width="804" height="280" rx="12" fill="#161b22"/>
    <text x="15" y="22" font-size="14" font-weight="bold">Threat Scenario Gaps (SOC Optimization)</text>
    <!-- Headers -->
    <text x="15" y="44" font-size="10" fill="#b2b2b2">Scenario</text>
    <text x="400" y="44" text-anchor="middle" font-size="10" fill="#b2b2b2">Active</text>
    <text x="470" y="44" text-anchor="middle" font-size="10" fill="#b2b2b2">Rec.</text>
    <text x="540" y="44" text-anchor="middle" font-size="10" fill="#b2b2b2">Gap</text>
    <text x="630" y="44" text-anchor="middle" font-size="10" fill="#b2b2b2">Priority</text>
    <text x="740" y="44" text-anchor="middle" font-size="10" fill="#b2b2b2">State</text>
    <line x1="10" y1="49" x2="794" y2="49" stroke="#30363d" stroke-width="1"/>

    <!-- Row 0: Credential Exploitation -->
    <rect x="5" y="52" width="794" height="25" rx="0" fill="#1c2128"/>
    <text x="15" y="69" font-size="11">Credential Exploitation</text>
    <text x="400" y="69" text-anchor="middle" font-size="11">23</text>
    <text x="470" y="69" text-anchor="middle" font-size="11">609</text>
    <text x="540" y="69" text-anchor="middle" font-size="11" font-weight="bold" fill="#EF6950">586</text>
    <rect x="606" y="58" width="48" height="16" rx="4" fill="none" stroke="#EF6950" stroke-width="1.5"/><text x="630" y="70" text-anchor="middle" font-size="9" font-weight="bold" fill="#EF6950">HIGH</text>
    <rect x="713" y="58" width="54" height="16" rx="4" fill="none" stroke="#409AE1" stroke-width="1.5"/><text x="740" y="70" text-anchor="middle" font-size="9" font-weight="bold" fill="#409AE1">Active</text>

    <!-- Row 1: Network Infiltration -->
    <text x="15" y="94" font-size="11">Network Infiltration</text>
    <text x="400" y="94" text-anchor="middle" font-size="11">9</text>
    <text x="470" y="94" text-anchor="middle" font-size="11">245</text>
    <text x="540" y="94" text-anchor="middle" font-size="11" font-weight="bold" fill="#EF6950">236</text>
    <rect x="606" y="83" width="48" height="16" rx="4" fill="none" stroke="#EF6950" stroke-width="1.5"/><text x="630" y="95" text-anchor="middle" font-size="9" font-weight="bold" fill="#EF6950">HIGH</text>
    <rect x="713" y="83" width="54" height="16" rx="4" fill="none" stroke="#409AE1" stroke-width="1.5"/><text x="740" y="95" text-anchor="middle" font-size="9" font-weight="bold" fill="#409AE1">Active</text>

    <!-- Row 2: IaaS Resource Theft -->
    <rect x="5" y="102" width="794" height="25" rx="0" fill="#1c2128"/>
    <text x="15" y="119" font-size="11">IaaS Resource Theft</text>
    <text x="400" y="119" text-anchor="middle" font-size="11">51</text>
    <text x="470" y="119" text-anchor="middle" font-size="11">119</text>
    <text x="540" y="119" text-anchor="middle" font-size="11" font-weight="bold" fill="#ff8c00">68</text>
    <rect x="606" y="108" width="48" height="16" rx="4" fill="none" stroke="#ff8c00" stroke-width="1.5"/><text x="630" y="120" text-anchor="middle" font-size="9" font-weight="bold" fill="#ff8c00">MED</text>
    <rect x="713" y="108" width="54" height="16" rx="4" fill="none" stroke="#409AE1" stroke-width="1.5"/><text x="740" y="120" text-anchor="middle" font-size="9" font-weight="bold" fill="#409AE1">Active</text>

    <!-- Row 3: Human Op. Ransomware -->
    <text x="15" y="144" font-size="11">Human Op. Ransomware</text>
    <text x="400" y="144" text-anchor="middle" font-size="11">25</text>
    <text x="470" y="144" text-anchor="middle" font-size="11">89</text>
    <text x="540" y="144" text-anchor="middle" font-size="11" font-weight="bold" fill="#ff8c00">64</text>
    <rect x="606" y="133" width="48" height="16" rx="4" fill="none" stroke="#ff8c00" stroke-width="1.5"/><text x="630" y="145" text-anchor="middle" font-size="9" font-weight="bold" fill="#ff8c00">MED</text>
    <rect x="708" y="133" width="64" height="16" rx="4" fill="none" stroke="#ff8c00" stroke-width="1.5"/><text x="740" y="145" text-anchor="middle" font-size="9" font-weight="bold" fill="#ff8c00">InProg</text>

    <!-- Row 4: AiTM -->
    <rect x="5" y="152" width="794" height="25" rx="0" fill="#1c2128"/>
    <text x="15" y="169" font-size="11">AiTM (Adversary in the Middle)</text>
    <text x="400" y="169" text-anchor="middle" font-size="11">36</text>
    <text x="470" y="169" text-anchor="middle" font-size="11">59</text>
    <text x="540" y="169" text-anchor="middle" font-size="11">23</text>
    <rect x="612" y="158" width="36" height="16" rx="4" fill="none" stroke="#40C5AF" stroke-width="1.5"/><text x="630" y="170" text-anchor="middle" font-size="9" font-weight="bold" fill="#40C5AF">OK</text>
    <rect x="713" y="158" width="54" height="16" rx="4" fill="none" stroke="#409AE1" stroke-width="1.5"/><text x="740" y="170" text-anchor="middle" font-size="9" font-weight="bold" fill="#409AE1">Active</text>

    <!-- Row 5: BEC (Mass Cred Harvest) -->
    <text x="15" y="194" font-size="11">BEC (Mass Cred Harvest)</text>
    <text x="400" y="194" text-anchor="middle" font-size="11">70</text>
    <text x="470" y="194" text-anchor="middle" font-size="11">91</text>
    <text x="540" y="194" text-anchor="middle" font-size="11">21</text>
    <rect x="612" y="183" width="36" height="16" rx="4" fill="none" stroke="#40C5AF" stroke-width="1.5"/><text x="630" y="195" text-anchor="middle" font-size="9" font-weight="bold" fill="#40C5AF">OK</text>
    <rect x="713" y="183" width="54" height="16" rx="4" fill="none" stroke="#409AE1" stroke-width="1.5"/><text x="740" y="195" text-anchor="middle" font-size="9" font-weight="bold" fill="#409AE1">Active</text>

    <!-- Row 6: ERP (SAP) Financial -->
    <rect x="5" y="202" width="794" height="25" rx="0" fill="#1c2128"/>
    <text x="15" y="219" font-size="11">ERP (SAP) Financial</text>
    <text x="400" y="219" text-anchor="middle" font-size="11">43</text>
    <text x="470" y="219" text-anchor="middle" font-size="11">60</text>
    <text x="540" y="219" text-anchor="middle" font-size="11">17</text>
    <rect x="612" y="208" width="36" height="16" rx="4" fill="none" stroke="#40C5AF" stroke-width="1.5"/><text x="630" y="220" text-anchor="middle" font-size="9" font-weight="bold" fill="#40C5AF">OK</text>
    <rect x="713" y="208" width="54" height="16" rx="4" fill="none" stroke="#409AE1" stroke-width="1.5"/><text x="740" y="220" text-anchor="middle" font-size="9" font-weight="bold" fill="#409AE1">Active</text>

    <!-- Row 7: BEC (Financial Fraud) -->
    <text x="15" y="244" font-size="11">BEC (Financial Fraud)</text>
    <text x="400" y="244" text-anchor="middle" font-size="11">37</text>
    <text x="470" y="244" text-anchor="middle" font-size="11">47</text>
    <text x="540" y="244" text-anchor="middle" font-size="11">10</text>
    <rect x="612" y="233" width="36" height="16" rx="4" fill="none" stroke="#40C5AF" stroke-width="1.5"/><text x="630" y="245" text-anchor="middle" font-size="9" font-weight="bold" fill="#40C5AF">OK</text>
    <rect x="713" y="233" width="54" height="16" rx="4" fill="none" stroke="#409AE1" stroke-width="1.5"/><text x="740" y="245" text-anchor="middle" font-size="9" font-weight="bold" fill="#409AE1">Active</text>
  </g>

  <!-- Donut Chart (w=516) at x=854 -->
  <!-- cx=160, cy=155, r=70, stroke-width=20, C=439.82 -->
  <g transform="translate(854,592)">
    <rect width="516" height="280" rx="12" fill="#161b22"/>
    <text x="15" y="22" font-size="14" font-weight="bold">Alert-Proven Techniques by Source</text>
    <!-- Donut segments (sorted desc, dasharray method) -->
    <!-- MDE: 58/122 arc=209.0 offset=439.82 -->
    <circle cx="160" cy="155" r="70" fill="none" stroke="#409AE1" stroke-width="20" stroke-dasharray="209 230.82" stroke-dashoffset="439.82" transform="rotate(-90,160,155)"><title>MDE: 58 techniques</title></circle>
    <!-- MXDR: 18/122 arc=64.9 offset=230.82 -->
    <circle cx="160" cy="155" r="70" fill="none" stroke="#b4a0ff" stroke-width="20" stroke-dasharray="64.9 374.92" stroke-dashoffset="230.82" transform="rotate(-90,160,155)"><title>MXDR: 18 techniques</title></circle>
    <!-- AR: 16/122 arc=57.7 offset=165.92 -->
    <circle cx="160" cy="155" r="70" fill="none" stroke="#8B5CF6" stroke-width="20" stroke-dasharray="57.7 382.12" stroke-dashoffset="165.92" transform="rotate(-90,160,155)"><title>AR: 16 techniques</title></circle>
    <!-- MDC: 13/122 arc=46.9 offset=108.22 -->
    <circle cx="160" cy="155" r="70" fill="none" stroke="#40C5AF" stroke-width="20" stroke-dasharray="46.9 392.92" stroke-dashoffset="108.22" transform="rotate(-90,160,155)"><title>MDC: 13 techniques</title></circle>
    <!-- MDI: 8/122 arc=28.8 offset=61.32 -->
    <circle cx="160" cy="155" r="70" fill="none" stroke="#FFC83D" stroke-width="20" stroke-dasharray="28.8 411.02" stroke-dashoffset="61.32" transform="rotate(-90,160,155)"><title>MDI: 8 techniques</title></circle>
    <!-- MDCA: 6/122 arc=21.6 offset=32.52 -->
    <circle cx="160" cy="155" r="70" fill="none" stroke="#ff8c00" stroke-width="20" stroke-dasharray="21.6 418.22" stroke-dashoffset="32.52" transform="rotate(-90,160,155)"><title>MDCA: 6 techniques</title></circle>
    <!-- AADIP: 2/122 arc=7.2 offset=10.92 -->
    <circle cx="160" cy="155" r="70" fill="none" stroke="#EF6950" stroke-width="20" stroke-dasharray="7.2 432.62" stroke-dashoffset="10.92" transform="rotate(-90,160,155)"><title>AADIP: 2 techniques</title></circle>
    <!-- MDO: 1/122 arc=3.6 offset=3.72 -->
    <circle cx="160" cy="155" r="70" fill="none" stroke="#6e7681" stroke-width="20" stroke-dasharray="3.6 436.22" stroke-dashoffset="3.72" transform="rotate(-90,160,155)"><title>MDO: 1 technique</title></circle>
    <!-- Center total (deduplicated Tier 1 = 67) -->
    <text x="160" y="151" text-anchor="middle" font-size="32" font-weight="bold">67</text>
    <text x="160" y="170" text-anchor="middle" font-size="10" fill="#b2b2b2">TECHNIQUES</text>
    <!-- Legend (right side) -->
    <rect x="275" y="55" width="10" height="10" rx="2" fill="#409AE1"/><text x="290" y="64" font-size="10">MDE (58)</text>
    <rect x="275" y="77" width="10" height="10" rx="2" fill="#b4a0ff"/><text x="290" y="86" font-size="10">MXDR (18)</text>
    <rect x="275" y="99" width="10" height="10" rx="2" fill="#8B5CF6"/><text x="290" y="108" font-size="10">AR (16)</text>
    <rect x="275" y="121" width="10" height="10" rx="2" fill="#40C5AF"/><text x="290" y="130" font-size="10">MDC (13)</text>
    <rect x="275" y="143" width="10" height="10" rx="2" fill="#FFC83D"/><text x="290" y="152" font-size="10">MDI (8)</text>
    <rect x="275" y="165" width="10" height="10" rx="2" fill="#ff8c00"/><text x="290" y="174" font-size="10">MDCA (6)</text>
    <rect x="275" y="187" width="10" height="10" rx="2" fill="#EF6950"/><text x="290" y="196" font-size="10">AADIP (2)</text>
    <rect x="275" y="209" width="10" height="10" rx="2" fill="#6e7681"/><text x="290" y="218" font-size="10">MDO (1)</text>
    <text x="275" y="248" font-size="9" fill="#b2b2b2">Note: Segments overlap — center shows unique Tier 1 count</text>
  </g>

  <!-- ═══ ROW 5: Recommendation Cards (y=892, h=130, 3 cards @ 433px) ═══ -->
  <!-- Card 1: Credential Exploitation (HIGH) -->
  <g transform="translate(30,892)">
    <rect width="433" height="130" rx="12" fill="#161b22"/>
    <rect width="4" height="110" y="10" rx="2" fill="#EF6950"/>
    <rect x="15" y="12" width="48" height="16" rx="4" fill="none" stroke="#EF6950" stroke-width="1.5"/><text x="39" y="24" text-anchor="middle" font-size="9" font-weight="bold" fill="#EF6950">HIGH</text>
    <text x="15" y="50" font-size="13" font-weight="bold">Address Credential Exploitation gap</text>
    <text x="15" y="72" font-size="11" fill="#b2b2b2">3.8% SOC rate · 586 missing detections</text>
    <text x="15" y="92" font-size="11" fill="#b2b2b2">Largest absolute gap — Collection, Exfil, Impact</text>
    <text x="15" y="115" font-size="10" fill="#409AE1">Impact: Closes largest SOC Optimization deficit</text>
  </g>
  <!-- Card 2: Network Infiltration (HIGH) -->
  <g transform="translate(483,892)">
    <rect width="433" height="130" rx="12" fill="#161b22"/>
    <rect width="4" height="110" y="10" rx="2" fill="#EF6950"/>
    <rect x="15" y="12" width="48" height="16" rx="4" fill="none" stroke="#EF6950" stroke-width="1.5"/><text x="39" y="24" text-anchor="middle" font-size="9" font-weight="bold" fill="#EF6950">HIGH</text>
    <text x="15" y="50" font-size="13" font-weight="bold">Address Network Infiltration gap</text>
    <text x="15" y="72" font-size="11" fill="#b2b2b2">3.7% SOC rate · 236 missing detections</text>
    <text x="15" y="92" font-size="11" fill="#b2b2b2">Gaps in DefEvasion, Execution, CredAccess</text>
    <text x="15" y="115" font-size="10" fill="#409AE1">Impact: Second-largest gap with tactic spread</text>
  </g>
  <!-- Card 3: Paper Tigers (MED) -->
  <g transform="translate(936,892)">
    <rect width="434" height="130" rx="12" fill="#161b22"/>
    <rect width="4" height="110" y="10" rx="2" fill="#ff8c00"/>
    <rect x="15" y="12" width="42" height="16" rx="4" fill="none" stroke="#ff8c00" stroke-width="1.5"/><text x="36" y="24" text-anchor="middle" font-size="9" font-weight="bold" fill="#ff8c00">MED</text>
    <text x="15" y="50" font-size="13" font-weight="bold">Reduce paper tiger rules</text>
    <text x="15" y="72" font-size="11" fill="#b2b2b2">85 silent rules · Operational score: 20/100</text>
    <text x="15" y="92" font-size="11" fill="#b2b2b2">Review data sources, decommission stale templates</text>
    <text x="15" y="115" font-size="10" fill="#409AE1">Impact: Directly improves Operational dimension (30% weight)</text>
  </g>
</svg>
